<svg xmlns="http://www.w3.org/2000/svg" xmlns:ns1="http://sodipodi.sourceforge.net/DTD/sodipodi-0.dtd" xmlns:ns2="http://www.inkscape.org/namespaces/inkscape" viewBox="-14.0 -14.0 284.0 284.0" width="256" height="256"><defs><clipPath id="boundary-clip"><path d="M 56.308594 -0.80859375 C 55.577326 -0.82183581 54.844858 -0.8153767 54.111328 -0.79101562 C 36.506606 -0.2063499 18.449739 11.120615 9.6699219 29.417969 C 2.2307551 44.921373 3.6819582 63.093203 8 79.384766 C 12.318042 95.676328 19.603364 110.24626 25.189453 119.08594 C 31.075976 128.40103 38.456711 133.08488 44.363281 135.21484 C 44.903134 135.40952 45.421698 135.56306 45.941406 135.71875 C 34.870433 149.02537 21.986203 169.85171 23.693359 193.56641 C 24.678564 207.25223 27.259578 216.97446 31.927734 224.53906 C 36.595891 232.10367 43.176907 237.11499 50.994141 241.71484 C 68.566844 252.05505 87.580286 255.48949 127.9375 256.03516 A 5 5 0 0 0 128.03711 256.00977 A -5 5 0 0 0 128.0625 256.03516 C 168.41971 255.48949 187.43316 252.05505 205.00586 241.71484 C 212.82309 237.11499 219.40411 232.10367 224.07227 224.53906 C 228.74042 216.97446 231.32144 207.25223 232.30664 193.56641 C 234.0138 169.85171 221.12957 149.02537 210.05859 135.71875 C 210.5783 135.56306 211.09687 135.40952 211.63672 135.21484 C 217.54329 133.08488 224.92402 128.40103 230.81055 119.08594 C 236.39664 110.24626 243.68196 95.676328 248 79.384766 C 252.31804 63.093203 253.76924 44.921373 246.33008 29.417969 C 237.55026 11.120615 219.49339 -0.2063499 201.88867 -0.79101562 C 196.02043 -0.9859042 190.202 0.013931965 184.79492 2.3457031 C 172.00624 7.8607475 164.304 20.24992 159.4707 30.867188 C 155.56001 39.457785 153.60005 46.974267 152.9668 49.636719 C 145.03685 48.031497 137.04813 47.500596 128.18555 47.162109 A -5 5 0 0 0 128.15234 47.193359 A 5 5 0 0 0 127.81445 47.162109 C 118.95187 47.500596 110.96315 48.031497 103.0332 49.636719 C 102.39995 46.974267 100.43999 39.457785 96.529297 30.867188 C 91.696002 20.24992 83.99376 7.8607475 71.205078 2.3457031 C 66.473884 0.30540336 61.427466 -0.7158993 56.308594 -0.80859375 z" /></clipPath></defs><g id="boundary-halo"><g id="layer5">
    <path style="fill:none;stroke:#c87f43;stroke-width:30.0;stroke-linecap:round;stroke-linejoin:round;stroke-miterlimit:4;stroke-dasharray:none;stroke-opacity:1" d="m 54.754798,132.02818 c 0,0 -14.740393,1.15965 -25.339505,-15.61285 C 18.816177,99.642824 0.87635855,59.301215 14.177561,31.581186 24.783597,9.4779488 50.60598,-1.0929621 69.225531,6.9366108 90.957373,16.308341 98.432832,51.912867 98.432832,51.912867" id="path2344" ns1:nodetypes="csssc" />
    <path style="fill:none;stroke:#c87f43;stroke-width:30.0;stroke-linecap:round;stroke-linejoin:round;stroke-miterlimit:4;stroke-dasharray:none;stroke-opacity:1" d="m 64.094776,124.31363 c 0,0 -38.086084,31.77224 -35.413832,68.8934 1.90499,26.46287 9.815885,35.35189 24.849345,44.19795 16.658504,9.80227 34.371128,13.0882 74.475241,13.63044" id="path3544" ns1:nodetypes="cssc" />
    <path style="fill:none;stroke:#c87f43;stroke-width:30.0;stroke-linecap:round;stroke-linejoin:round;stroke-miterlimit:4;stroke-dasharray:none;stroke-opacity:1" d="M 87.691291,59.697921 C 101.13288,53.794415 112.89212,52.736236 128.00553,52.159014" id="path4458" ns1:nodetypes="cc" />
  </g>
  <g transform="matrix(-1,0,0,1,256,0)"><g ns2:groupmode="layer" id="layer5" ns2:label="boundary">
    <path style="fill:none;stroke:#c87f43;stroke-width:30.0;stroke-linecap:round;stroke-linejoin:round;stroke-miterlimit:4;stroke-dasharray:none;stroke-opacity:1" d="m 54.754798,132.02818 c 0,0 -14.740393,1.15965 -25.339505,-15.61285 C 18.816177,99.642824 0.87635855,59.301215 14.177561,31.581186 24.783597,9.4779488 50.60598,-1.0929621 69.225531,6.9366108 90.957373,16.308341 98.432832,51.912867 98.432832,51.912867" id="path2344" ns1:nodetypes="csssc" />
    <path style="fill:none;stroke:#c87f43;stroke-width:30.0;stroke-linecap:round;stroke-linejoin:round;stroke-miterlimit:4;stroke-dasharray:none;stroke-opacity:1" d="m 64.094776,124.31363 c 0,0 -38.086084,31.77224 -35.413832,68.8934 1.90499,26.46287 9.815885,35.35189 24.849345,44.19795 16.658504,9.80227 34.371128,13.0882 74.475241,13.63044" id="path3544" ns1:nodetypes="cssc" />
    <path style="fill:none;stroke:#c87f43;stroke-width:30.0;stroke-linecap:round;stroke-linejoin:round;stroke-miterlimit:4;stroke-dasharray:none;stroke-opacity:1" d="M 87.691291,59.697921 C 101.13288,53.794415 112.89212,52.736236 128.00553,52.159014" id="path4458" ns1:nodetypes="cc" />
  </g>
  </g></g><path id="boundary-fill" d="M 56.308594 -0.80859375 C 55.577326 -0.82183581 54.844858 -0.8153767 54.111328 -0.79101562 C 36.506606 -0.2063499 18.449739 11.120615 9.6699219 29.417969 C 2.2307551 44.921373 3.6819582 63.093203 8 79.384766 C 12.318042 95.676328 19.603364 110.24626 25.189453 119.08594 C 31.075976 128.40103 38.456711 133.08488 44.363281 135.21484 C 44.903134 135.40952 45.421698 135.56306 45.941406 135.71875 C 34.870433 149.02537 21.986203 169.85171 23.693359 193.56641 C 24.678564 207.25223 27.259578 216.97446 31.927734 224.53906 C 36.595891 232.10367 43.176907 237.11499 50.994141 241.71484 C 68.566844 252.05505 87.580286 255.48949 127.9375 256.03516 A 5 5 0 0 0 128.03711 256.00977 A -5 5 0 0 0 128.0625 256.03516 C 168.41971 255.48949 187.43316 252.05505 205.00586 241.71484 C 212.82309 237.11499 219.40411 232.10367 224.07227 224.53906 C 228.74042 216.97446 231.32144 207.25223 232.30664 193.56641 C 234.0138 169.85171 221.12957 149.02537 210.05859 135.71875 C 210.5783 135.56306 211.09687 135.40952 211.63672 135.21484 C 217.54329 133.08488 224.92402 128.40103 230.81055 119.08594 C 236.39664 110.24626 243.68196 95.676328 248 79.384766 C 252.31804 63.093203 253.76924 44.921373 246.33008 29.417969 C 237.55026 11.120615 219.49339 -0.2063499 201.88867 -0.79101562 C 196.02043 -0.9859042 190.202 0.013931965 184.79492 2.3457031 C 172.00624 7.8607475 164.304 20.24992 159.4707 30.867188 C 155.56001 39.457785 153.60005 46.974267 152.9668 49.636719 C 145.03685 48.031497 137.04813 47.500596 128.18555 47.162109 A -5 5 0 0 0 128.15234 47.193359 A 5 5 0 0 0 127.81445 47.162109 C 118.95187 47.500596 110.96315 48.031497 103.0332 49.636719 C 102.39995 46.974267 100.43999 39.457785 96.529297 30.867188 C 91.696002 20.24992 83.99376 7.8607475 71.205078 2.3457031 C 66.473884 0.30540336 61.427466 -0.7158993 56.308594 -0.80859375 z" fill="#c87f43" fill-rule="nonzero" stroke="none" /><g id="whiskers-halo"><g id="layer8">
    <path style="fill:none;stroke:#c87f43;stroke-width:30.0;stroke-linecap:round;stroke-linejoin:round;stroke-miterlimit:4;stroke-dasharray:none;stroke-opacity:1" d="M 92.874647,171.69781 C 71.426371,159.7003 25.445883,163.15654 5.7464449,178.59959" id="path9091" ns1:nodetypes="cc" />
    <path style="fill:none;stroke:#c87f43;stroke-width:30.0;stroke-linecap:round;stroke-linejoin:round;stroke-miterlimit:4;stroke-dasharray:none;stroke-opacity:1" d="m 96.179702,187.71427 c -23.540917,-5.04716 -67.304821,-0.029 -86.3727267,13.93029" id="path9093" ns1:nodetypes="cc" />
  </g>
  <g transform="matrix(-1,0,0,1,256,0)"><g ns2:groupmode="layer" id="layer8" ns2:label="whiskers">
    <path style="fill:none;stroke:#c87f43;stroke-width:30.0;stroke-linecap:round;stroke-linejoin:round;stroke-miterlimit:4;stroke-dasharray:none;stroke-opacity:1" d="M 92.874647,171.69781 C 71.426371,159.7003 25.445883,163.15654 5.7464449,178.59959" id="path9091" ns1:nodetypes="cc" />
    <path style="fill:none;stroke:#c87f43;stroke-width:30.0;stroke-linecap:round;stroke-linejoin:round;stroke-miterlimit:4;stroke-dasharray:none;stroke-opacity:1" d="m 96.179702,187.71427 c -23.540917,-5.04716 -67.304821,-0.029 -86.3727267,13.93029" id="path9093" ns1:nodetypes="cc" />
  </g>
  </g></g><g id="spots-fill" clip-path="url(#boundary-clip)"><ellipse style="fill:#e6e2cf;stroke-width:1.97656;stroke-linecap:round;stroke-linejoin:round;stop-color:#000000;stroke:none" id="path13598" cx="225.73286" cy="95.907722" rx="102.98962" ry="111.20271" />
    <ellipse style="fill:#e6e2cf;stroke-width:1.67315;stroke-linecap:round;stroke-linejoin:round;stop-color:#000000;stroke:none" id="path13598-3" cx="32.759953" cy="267.53622" rx="144.85356" ry="56.653954" />
  </g><path id="nose-fill" d="M 127.93555 145.68359 C 120.65222 145.77699 114.73378 146.22127 109.72852 148.69531 C 104.72325 151.16936 101.39672 156.58752 101.18945 162.75 C 100.93716 170.2509 106.18995 175.7654 111.51367 179.95703 C 114.17553 182.05285 117.01876 183.79571 119.79102 185.07031 C 122.47755 186.3055 124.98039 187.19908 127.86133 187.17969 A -5 5 0 0 0 127.86523 187.18359 C 127.91093 187.18483 127.9545 187.18086 128 187.18164 C 128.0455 187.18086 128.08907 187.18483 128.13477 187.18359 A 5 5 0 0 0 128.20117 187.17969 C 131.05561 187.18563 133.54204 186.2965 136.20898 185.07031 C 138.98124 183.79571 141.82447 182.05285 144.48633 179.95703 C 149.81005 175.7654 155.06284 170.2509 154.81055 162.75 C 154.60328 156.58752 151.27675 151.16936 146.27148 148.69531 C 141.26622 146.22127 135.34778 145.77699 128.06445 145.68359 A -5 5 0 0 0 128.05078 145.69727 A 5 5 0 0 0 127.93555 145.68359 z" fill="#f09b9b" stroke="none" /><path id="mouth-fill" d="M 127.99414 181.08984 A -5 5 0 0 1 127.99219 181.0918 A 5 5 0 0 0 123.00781 186.07617 A -5 5 0 0 0 122.99414 186.08984 C 122.99414 187.05248 122.84367 188.39263 122.9668 190.08203 C 122.848 190.74607 122.8106 191.05406 121.66992 192.06055 C 119.35156 194.10617 111.70088 197.73269 94.199219 201.5332 A 5 5 0 0 0 90.373047 207.48047 A 5 5 0 0 0 96.320312 211.30469 C 97.598064 211.02722 98.817589 210.75399 100.00391 210.48242 C 101.79682 215.72075 105.28106 220.67201 109.73633 224.70703 C 114.68577 229.18962 120.97674 232.61864 127.99609 232.62305 A 5 5 0 0 0 128.00391 232.62305 C 135.02326 232.61864 141.31423 229.18962 146.26367 224.70703 C 150.71894 220.67201 154.20318 215.72075 155.99609 210.48242 C 157.18241 210.75399 158.40194 211.02722 159.67969 211.30469 A -5 5 0 0 0 165.62695 207.48047 A -5 5 0 0 0 161.80078 201.5332 C 144.29912 197.73269 136.64844 194.10617 134.33008 192.06055 C 133.1894 191.05406 133.152 190.74607 133.0332 190.08203 C 133.15633 188.39263 133.00586 187.05248 133.00586 186.08984 A 5 5 0 0 0 128.00586 181.08984 A 5 5 0 0 0 127.99609 181.0918 A -5 5 0 0 1 127.99414 181.08984 z" fill="#f09b9b" stroke="none" /><path id="eyes-fill" d="M 102.55273 94.632812 C 98.619281 94.755571 95.050895 97.155243 92.353516 99.908203 C 89.033664 103.29646 86.322298 107.82237 84.4375 113.0625 C 82.552701 118.30264 81.82752 123.3304 82.359375 127.69336 C 82.891232 132.05631 84.875831 136.58644 89.890625 137.85547 C 94.905419 139.12449 99.547328 136.27106 102.86719 132.88281 C 106.18704 129.49455 108.90036 124.9706 110.78516 119.73047 C 112.66995 114.49033 113.39318 109.46061 112.86133 105.09766 C 112.32946 100.7347 110.34292 96.204571 105.32812 94.935547 C 104.38785 94.697605 103.46045 94.604484 102.55273 94.632812 z M 153.44727 94.632812 C 152.53955 94.604484 151.61215 94.697605 150.67188 94.935547 C 145.65708 96.204571 143.67054 100.7347 143.13867 105.09766 C 142.60682 109.46061 143.33005 114.49033 145.21484 119.73047 C 147.09964 124.9706 149.81296 129.49455 153.13281 132.88281 C 156.45267 136.27106 161.09458 139.12449 166.10938 137.85547 C 171.12417 136.58644 173.10877 132.05631 173.64062 127.69336 C 174.17248 123.3304 173.4473 118.30264 171.5625 113.0625 C 169.6777 107.82237 166.96634 103.29646 163.64648 99.908203 C 160.9491 97.155243 157.38072 94.755571 153.44727 94.632812 z" fill="#ffffff" stroke="none" /><g id="strokes"><g id="boundary-strokes"><g id="layer5">
    <path style="fill:none;stroke:#000000;stroke-width:10.0;stroke-linecap:round;stroke-linejoin:round;stroke-miterlimit:4;stroke-dasharray:none;stroke-opacity:1" d="m 54.754798,132.02818 c 0,0 -14.740393,1.15965 -25.339505,-15.61285 C 18.816177,99.642824 0.87635855,59.301215 14.177561,31.581186 24.783597,9.4779488 50.60598,-1.0929621 69.225531,6.9366108 90.957373,16.308341 98.432832,51.912867 98.432832,51.912867" id="path2344" ns1:nodetypes="csssc" />
    <path style="fill:none;stroke:#000000;stroke-width:10.0;stroke-linecap:round;stroke-linejoin:miter;stroke-miterlimit:4;stroke-dasharray:none;stroke-opacity:1" d="m 64.094776,124.31363 c 0,0 -38.086084,31.77224 -35.413832,68.8934 1.90499,26.46287 9.815885,35.35189 24.849345,44.19795 16.658504,9.80227 34.371128,13.0882 74.475241,13.63044" id="path3544" ns1:nodetypes="cssc" />
    <path style="fill:none;stroke:#000000;stroke-width:10.0;stroke-linecap:round;stroke-linejoin:miter;stroke-miterlimit:4;stroke-dasharray:none;stroke-opacity:1" d="M 87.691291,59.697921 C 101.13288,53.794415 112.89212,52.736236 128.00553,52.159014" id="path4458" ns1:nodetypes="cc" />
  </g>
  <g transform="matrix(-1,0,0,1,256,0)"><g ns2:groupmode="layer" id="layer5" ns2:label="boundary">
    <path style="fill:none;stroke:#000000;stroke-width:10.0;stroke-linecap:round;stroke-linejoin:round;stroke-miterlimit:4;stroke-dasharray:none;stroke-opacity:1" d="m 54.754798,132.02818 c 0,0 -14.740393,1.15965 -25.339505,-15.61285 C 18.816177,99.642824 0.87635855,59.301215 14.177561,31.581186 24.783597,9.4779488 50.60598,-1.0929621 69.225531,6.9366108 90.957373,16.308341 98.432832,51.912867 98.432832,51.912867" id="path2344" ns1:nodetypes="csssc" />
    <path style="fill:none;stroke:#000000;stroke-width:10.0;stroke-linecap:round;stroke-linejoin:miter;stroke-miterlimit:4;stroke-dasharray:none;stroke-opacity:1" d="m 64.094776,124.31363 c 0,0 -38.086084,31.77224 -35.413832,68.8934 1.90499,26.46287 9.815885,35.35189 24.849345,44.19795 16.658504,9.80227 34.371128,13.0882 74.475241,13.63044" id="path3544" ns1:nodetypes="cssc" />
    <path style="fill:none;stroke:#000000;stroke-width:10.0;stroke-linecap:round;stroke-linejoin:miter;stroke-miterlimit:4;stroke-dasharray:none;stroke-opacity:1" d="M 87.691291,59.697921 C 101.13288,53.794415 112.89212,52.736236 128.00553,52.159014" id="path4458" ns1:nodetypes="cc" />
  </g>
  </g></g><g id="whiskers-strokes"><g id="layer8">
    <path style="fill:none;stroke:#000000;stroke-width:10.0;stroke-linecap:round;stroke-linejoin:miter;stroke-miterlimit:4;stroke-dasharray:none;stroke-opacity:1" d="M 92.874647,171.69781 C 71.426371,159.7003 25.445883,163.15654 5.7464449,178.59959" id="path9091" ns1:nodetypes="cc" />
    <path style="fill:none;stroke:#000000;stroke-width:10.0;stroke-linecap:round;stroke-linejoin:miter;stroke-miterlimit:4;stroke-dasharray:none;stroke-opacity:1" d="m 96.179702,187.71427 c -23.540917,-5.04716 -67.304821,-0.029 -86.3727267,13.93029" id="path9093" ns1:nodetypes="cc" />
  </g>
  <g transform="matrix(-1,0,0,1,256,0)"><g ns2:groupmode="layer" id="layer8" ns2:label="whiskers">
    <path style="fill:none;stroke:#000000;stroke-width:10.0;stroke-linecap:round;stroke-linejoin:miter;stroke-miterlimit:4;stroke-dasharray:none;stroke-opacity:1" d="M 92.874647,171.69781 C 71.426371,159.7003 25.445883,163.15654 5.7464449,178.59959" id="path9091" ns1:nodetypes="cc" />
    <path style="fill:none;stroke:#000000;stroke-width:10.0;stroke-linecap:round;stroke-linejoin:miter;stroke-miterlimit:4;stroke-dasharray:none;stroke-opacity:1" d="m 96.179702,187.71427 c -23.540917,-5.04716 -67.304821,-0.029 -86.3727267,13.93029" id="path9093" ns1:nodetypes="cc" />
  </g>
  </g></g><g id="nose-strokes"><g id="layer4">
    <path style="fill:none;stroke:#000000;stroke-width:10.0;stroke-linecap:round;stroke-linejoin:miter;stroke-miterlimit:4;stroke-dasharray:none;stroke-opacity:1" d="m 128,150.68283 c -14.06503,0.18038 -21.48165,2.39272 -21.8127,12.23539 -0.30602,9.09826 15.48714,19.43936 21.8127,19.26785" id="path9740" ns1:nodetypes="csc" />
  </g>
  <g transform="matrix(-1,0,0,1,256,0)"><g ns2:groupmode="layer" id="layer4" ns2:label="nose">
    <path style="fill:none;stroke:#000000;stroke-width:10.0;stroke-linecap:round;stroke-linejoin:miter;stroke-miterlimit:4;stroke-dasharray:none;stroke-opacity:1" d="m 128,150.68283 c -14.06503,0.18038 -21.48165,2.39272 -21.8127,12.23539 -0.30602,9.09826 15.48714,19.43936 21.8127,19.26785" id="path9740" ns1:nodetypes="csc" />
  </g>
  </g></g><g id="mouth-strokes"><g id="layer10" style="display:inline">
    <path style="fill:none;stroke:#000000;stroke-width:10.0;stroke-linecap:round;stroke-linejoin:miter;stroke-miterlimit:4;stroke-dasharray:none;stroke-opacity:1" d="M 95.259321,206.41848 C 130.84625,198.69073 128.00553,192.6316 128.00553,186.09025" id="path4876" ns1:nodetypes="cc" />
    <path style="fill:none;stroke:#000000;stroke-width:10.0;stroke-linecap:round;stroke-linejoin:miter;stroke-miterlimit:4;stroke-dasharray:none;stroke-opacity:1" d="m 104.29695,207.44662 c 2.4581,9.24759 13.09427,20.17055 23.70305,20.17721" id="path4878" ns1:nodetypes="cc" />
  </g>
  <g transform="matrix(-1,0,0,1,256,0)"><g ns2:groupmode="layer" id="layer10" ns2:label="mouth" style="display:inline">
    <path style="fill:none;stroke:#000000;stroke-width:10.0;stroke-linecap:round;stroke-linejoin:miter;stroke-miterlimit:4;stroke-dasharray:none;stroke-opacity:1" d="M 95.259321,206.41848 C 130.84625,198.69073 128.00553,192.6316 128.00553,186.09025" id="path4876" ns1:nodetypes="cc" />
    <path style="fill:none;stroke:#000000;stroke-width:10.0;stroke-linecap:round;stroke-linejoin:miter;stroke-miterlimit:4;stroke-dasharray:none;stroke-opacity:1" d="m 104.29695,207.44662 c 2.4581,9.24759 13.09427,20.17055 23.70305,20.17721" id="path4878" ns1:nodetypes="cc" />
  </g>
  </g></g><g id="eyes-strokes"><g id="layer9">
    <ellipse style="fill:none;stroke:#000000;stroke-width:10.0;stroke-linecap:round;stroke-linejoin:round;stroke-miterlimit:4;stroke-dasharray:none;stop-color:#000000" id="path910" cx="131.8701" cy="89.316032" rx="8.5885868" ry="17.80649" transform="matrix(0.9694414,0.245323,-0.3384571,0.94098182,0,0)" />
  </g>
<g transform="matrix(-1,0,0,1,256,0)"><g ns2:groupmode="layer" id="layer9" ns2:label="eyes">
    <ellipse style="fill:none;stroke:#000000;stroke-width:10.0;stroke-linecap:round;stroke-linejoin:round;stroke-miterlimit:4;stroke-dasharray:none;stop-color:#000000" id="path910" cx="131.8701" cy="89.316032" rx="8.5885868" ry="17.80649" transform="matrix(0.9694414,0.245323,-0.3384571,0.94098182,0,0)" />
  </g>
</g></g></g></svg>
